<?xml version="1.0" standalone="no"?>
<!DOCTYPE svg PUBLIC "-//W3C//DTD SVG 20010904//EN"
 "http://www.w3.org/TR/2001/REC-SVG-20010904/DTD/svg10.dtd">
<svg version="1.0" xmlns="http://www.w3.org/2000/svg"
 width="600.000000pt" height="600.000000pt" viewBox="0 0 600.000000 600.000000"
 preserveAspectRatio="xMidYMid meet">
<metadata>
Created by potrace 1.11, written by Peter Selinger 2001-2013
</metadata>
<g transform="translate(0.000000,600.000000) scale(0.100000,-0.100000)"
fill="#000000" stroke="none">
<path d="M3248 5645 c-2 -2 -41 -6 -88 -9 -76 -6 -128 -13 -265 -32 -257 -36
-586 -140 -850 -269 -183 -90 -234 -119 -355 -202 -245 -168 -450 -380 -579
-598 -141 -239 -177 -413 -118 -568 70 -182 247 -350 339 -321 10 3 24 32 38
77 34 115 136 310 191 367 8 8 25 29 38 45 54 71 192 204 291 282 290 227 700
422 1100 523 301 77 607 95 836 51 146 -28 307 -115 366 -197 84 -117 26 -327
-175 -628 -26 -40 -143 -193 -172 -226 -16 -19 -50 -57 -74 -85 -105 -118
-324 -328 -472 -450 -54 -45 -239 -176 -315 -223 -139 -86 -346 -183 -361
-169 -3 4 5 32 17 64 59 148 160 394 185 448 15 33 34 76 42 95 8 19 57 121
108 225 99 203 170 326 235 410 22 28 40 57 40 63 0 54 -446 209 -615 214
-100 3 -101 2 -148 -64 -80 -112 -179 -329 -322 -698 -37 -96 -80 -213 -96
-260 -17 -47 -34 -94 -39 -105 -13 -29 -203 -602 -244 -735 -19 -63 -50 -167
-70 -230 -81 -265 -210 -739 -230 -843 -2 -12 -14 -69 -26 -126 -26 -126 -31
-207 -16 -243 45 -106 270 -284 427 -337 61 -20 120 -21 143 -2 8 7 19 49 26
94 30 207 143 687 237 1000 4 12 18 -15 43 -80 105 -278 286 -663 404 -857 36
-60 66 -113 66 -116 0 -4 9 -15 20 -25 11 -10 20 -24 20 -31 0 -7 4 -14 8 -16
4 -1 23 -25 42 -53 57 -83 110 -146 195 -231 218 -221 407 -291 631 -234 206
54 414 170 555 310 103 103 133 166 134 278 0 79 -1 85 -28 108 -15 13 -34 24
-40 24 -7 0 -23 -24 -37 -52 -49 -105 -145 -178 -234 -178 -225 0 -615 410
-1028 1080 -106 173 -288 506 -288 527 0 6 17 14 38 17 120 22 331 99 512 190
531 266 956 663 1170 1094 77 155 119 287 155 492 20 111 8 426 -20 545 -43
182 -121 358 -203 460 -93 116 -236 230 -362 289 -69 32 -222 83 -274 90 -21
4 -41 8 -45 10 -21 12 -451 32 -463 21z"/>
</g>
</svg>
